<mxfile host="app.diagrams.net" modified="2024-05-14T17:09:11.957Z" agent="Mozilla/5.0 (iPhone; CPU iPhone OS 16_2 like Mac OS X) AppleWebKit/605.1.15 (KHTML, like Gecko) Version/16.2 Mobile/15E148 Safari/604.1" version="24.4.0" etag="IqINo6idxMrcLNw_bmWT" type="github">
  <diagram name="Page-1" id="e3X0iGEg7Gln0J6t71s3">
    <mxGraphModel>
      <root>
        <mxCell id="0" />
        <mxCell id="1" parent="0" />
      </root>
    </mxGraphModel>
  </diagram>
</mxfile>
